Ubuntu-Condensed_Bold.ufo
<glyph name="quotesingle" format="2">
  <advance width="235"/>
  <unicode hex="0027"/>
  <outline>
    <contour>
      <point x="81" y="471" type="curve"/>
      <point x="154" y="471" type="line"/>
      <point x="171.0" y="534.0"/>
      <point x="185.0" y="635.0"/>
      <point x="185" y="689" type="curve"/>
      <point x="185" y="760" type="line"/>
      <point x="50" y="760" type="line"/>
      <point x="50" y="689" type="line" smooth="yes"/>
      <point x="50.0" y="635"/>
      <point x="64" y="534"/>
    </contour>
  </outline>
</glyph>
<glyph name="plus" format="2">
  <advance width="434"/>
  <unicode hex="002B"/>
  <outline>
    <contour>
      <point x="162" y="116" type="line"/>
      <point x="272" y="116" type="line"/>
      <point x="272" y="243" type="line"/>
      <point x="394" y="243" type="line"/>
      <point x="394" y="356" type="line"/>
      <point x="272" y="356" type="line"/>
      <point x="272" y="480" type="line"/>
      <point x="162" y="480" type="line"/>
      <point x="162" y="356" type="line"/>
      <point x="40" y="356" type="line"/>
      <point x="40" y="243" type="line"/>
      <point x="162" y="243" type="line"/>
    </contour>
  </outline>
</glyph>
<glyph name="period" format="2">
  <advance width="254"/>
  <unicode hex="002E"/>
  <outline>
    <contour>
      <point x="126" y="-14.0" type="curve" smooth="yes"/>
      <point x="181" y="-14.0"/>
      <point x="214" y="26"/>
      <point x="214" y="70" type="curve" smooth="yes"/>
      <point x="214" y="115"/>
      <point x="181" y="157"/>
      <point x="126" y="157" type="curve" smooth="yes"/>
      <point x="73" y="157"/>
      <point x="40" y="115"/>
      <point x="40" y="70" type="curve" smooth="yes"/>
      <point x="40" y="26"/>
      <point x="73" y="-14.0"/>
    </contour>
  </outline>
</glyph>
<glyph name="four" format="2">
  <advance width="434"/>
  <unicode hex="0034"/>
  <outline>
    <contour>
      <point x="232" y="0" type="line"/>
      <point x="361" y="0" type="line"/>
      <point x="361" y="143" type="line"/>
      <point x="425" y="143" type="line"/>
      <point x="425" y="249" type="line"/>
      <point x="361" y="249" type="line"/>
      <point x="361" y="693" type="line"/>
      <point x="223" y="693" type="line"/>
      <point x="158" y="591"/>
      <point x="68" y="388"/>
      <point x="23" y="239" type="curve"/>
      <point x="23" y="143" type="line"/>
      <point x="232" y="143" type="line"/>
    </contour>
    <contour>
      <point x="136" y="249" type="line"/>
      <point x="161" y="333"/>
      <point x="193" y="426"/>
      <point x="232" y="510" type="curve"/>
      <point x="232" y="249" type="line"/>
    </contour>
  </outline>
</glyph>
<glyph name="less" format="2">
  <advance width="434"/>
  <unicode hex="003C"/>
  <outline>
    <contour>
      <point x="342" y="67" type="line"/>
      <point x="394" y="171" type="line"/>
      <point x="170" y="300" type="line"/>
      <point x="394" y="429" type="line"/>
      <point x="342" y="533" type="line"/>
      <point x="40" y="351" type="line"/>
      <point x="40" y="249" type="line"/>
    </contour>
  </outline>
</glyph>
<glyph name="C" format="2">
  <advance width="491"/>
  <unicode hex="0043"/>
  <anchor x="246.0" y="0" name="bottom"/>
  <anchor x="246.0" y="693" name="top"/>
  <outline>
    <contour>
      <point x="324.0" y="-14" type="curve"/>
      <point x="389.0" y="-14.0"/>
      <point x="443.0" y="-2.0"/>
      <point x="481.0" y="21" type="curve"/>
      <point x="444.0" y="135" type="line"/>
      <point x="414.0" y="118.0"/>
      <point x="381.0" y="110.0"/>
      <point x="340.0" y="110" type="curve"/>
      <point x="237.0" y="110"/>
      <point x="199.0" y="174"/>
      <point x="199.0" y="348" type="curve" smooth="yes"/>
      <point x="199.0" y="522"/>
      <point x="230.0" y="583"/>
      <point x="319.0" y="583" type="curve"/>
      <point x="363.0" y="583.0"/>
      <point x="399.0" y="573.0"/>
      <point x="428.0" y="553" type="curve"/>
      <point x="469.0" y="672" type="line"/>
      <point x="432.0" y="694.0"/>
      <point x="377.0" y="707.0"/>
      <point x="320.0" y="707" type="curve"/>
      <point x="139.0" y="707"/>
      <point x="49.0" y="588"/>
      <point x="49.0" y="348" type="curve" smooth="yes"/>
      <point x="49.0" y="110"/>
      <point x="143.0" y="-14"/>
    </contour>
  </outline>
</glyph>
<glyph name="R" format="2">
  <advance width="553"/>
  <unicode hex="0052"/>
  <anchor x="275" y="0" name="bottom"/>
  <anchor x="275" y="693" name="top"/>
  <outline>
    <contour>
      <point x="78" y="0" type="line"/>
      <point x="220" y="0" type="line"/>
      <point x="220" y="255" type="line"/>
      <point x="238" y="255" type="line"/>
      <point x="251" y="255"/>
      <point x="269" y="255"/>
      <point x="275" y="255" type="curve"/>
      <point x="314" y="192"/>
      <point x="354" y="97"/>
      <point x="384" y="0" type="curve"/>
      <point x="526" y="0" type="line"/>
      <point x="501" y="97"/>
      <point x="455" y="204"/>
      <point x="402" y="292" type="curve"/>
      <point x="461" y="343"/>
      <point x="490" y="405"/>
      <point x="490" y="479" type="curve" smooth="yes"/>
      <point x="490.0" y="627.0"/>
      <point x="404" y="703"/>
      <point x="242" y="703" type="curve"/>
      <point x="179.0" y="703.0"/>
      <point x="128.16199404239705" y="695.0421184510233"/>
      <point x="78" y="682" type="curve"/>
    </contour>
    <contour>
      <point x="220" y="369" type="line"/>
      <point x="220" y="577" type="line"/>
      <point x="227" y="580"/>
      <point x="238" y="581"/>
      <point x="248" y="581" type="curve"/>
      <point x="311" y="581"/>
      <point x="342.0" y="547.0"/>
      <point x="342" y="479" type="curve"/>
      <point x="342" y="406"/>
      <point x="309" y="369"/>
      <point x="244" y="369" type="curve"/>
    </contour>
  </outline>
</glyph>
<glyph name="Y" format="2">
  <advance width="498"/>
  <unicode hex="0059"/>
  <anchor x="248" y="0" name="bottom"/>
  <anchor x="248" y="693" name="top"/>
  <anchor x="14" y="693" name="topleft"/>
  <outline>
    <contour>
      <point x="178" y="0" type="line"/>
      <point x="320" y="0" type="line"/>
      <point x="320" y="261" type="line"/>
      <point x="385" y="402"/>
      <point x="462" y="590"/>
      <point x="497" y="693" type="curve"/>
      <point x="348" y="693" type="line"/>
      <point x="323" y="603"/>
      <point x="289" y="499"/>
      <point x="250" y="397" type="curve"/>
      <point x="211" y="499"/>
      <point x="177" y="603"/>
      <point x="153" y="693" type="curve"/>
      <point x="1" y="693" type="line"/>
      <point x="36" y="590"/>
      <point x="113" y="402"/>
      <point x="178" y="261" type="curve"/>
    </contour>
  </outline>
</glyph>
<glyph name="bracketleft" format="2">
  <advance width="320"/>
  <unicode hex="005B"/>
  <outline>
    <contour>
      <point x="88" y="-185" type="line"/>
      <point x="313" y="-185" type="line"/>
      <point x="313" y="-84" type="line"/>
      <point x="214" y="-84" type="line"/>
      <point x="214" y="681" type="line"/>
      <point x="313" y="681" type="line"/>
      <point x="313" y="783" type="line"/>
      <point x="88" y="783" type="line"/>
    </contour>
  </outline>
</glyph>
<glyph name="e" format="2">
  <advance width="462"/>
  <unicode hex="0065"/>
  <anchor x="225" y="0" name="bottom"/>
  <anchor x="404" y="10" name="ogonek"/>
  <anchor x="225" y="527" name="top"/>
  <outline>
    <contour>
      <point x="265" y="-14" type="curve" smooth="yes"/>
      <point x="315.1818181818182" y="-14.0"/>
      <point x="359.4113801245653" y="-7.2573296537825485"/>
      <point x="397" y="11" type="curve"/>
      <point x="381" y="119" type="line"/>
      <point x="359" y="109"/>
      <point x="325" y="106.0"/>
      <point x="290" y="106" type="curve" smooth="yes"/>
      <point x="222.0" y="106.0"/>
      <point x="185.97347744700878" y="145.90962381536792"/>
      <point x="185" y="216" type="curve"/>
      <point x="417" y="216" type="line"/>
      <point x="418" y="234"/>
      <point x="419.0" y="252.0"/>
      <point x="419" y="273" type="curve"/>
      <point x="419.0" y="440.0"/>
      <point x="357" y="546"/>
      <point x="240" y="546" type="curve" smooth="yes"/>
      <point x="119" y="546"/>
      <point x="43.0" y="440.0"/>
      <point x="43" y="259" type="curve" smooth="yes"/>
      <point x="43" y="85"/>
      <point x="124" y="-14"/>
    </contour>
    <contour>
      <point x="185" y="313" type="line"/>
      <point x="187" y="399"/>
      <point x="201.32" y="431.0"/>
      <point x="233" y="431" type="curve"/>
      <point x="265" y="431"/>
      <point x="281.0" y="401.0"/>
      <point x="283" y="313" type="curve"/>
    </contour>
  </outline>
</glyph>
<glyph name="f" format="2">
  <advance width="338"/>
  <unicode hex="0066"/>
  <anchor x="166" y="0" name="bottom"/>
  <anchor x="166" y="776" name="top"/>
  <outline>
    <contour>
      <point x="69" y="0" type="line"/>
      <point x="207" y="0" type="line"/>
      <point x="207" y="419" type="line"/>
      <point x="329" y="419" type="line"/>
      <point x="329" y="532" type="line"/>
      <point x="207" y="532" type="line"/>
      <point x="207" y="588" type="line" smooth="yes"/>
      <point x="207" y="639.0"/>
      <point x="226.0" y="659.0"/>
      <point x="271" y="659" type="curve"/>
      <point x="289" y="659"/>
      <point x="311.0" y="654.0"/>
      <point x="325" y="647" type="curve"/>
      <point x="351" y="758" type="line"/>
      <point x="329" y="768"/>
      <point x="290" y="776"/>
      <point x="250" y="776" type="curve"/>
      <point x="131" y="776"/>
      <point x="69" y="711"/>
      <point x="69" y="578" type="curve" smooth="yes"/>
    </contour>
  </outline>
</glyph>
<glyph name="j" format="2">
  <advance width="276"/>
  <unicode hex="006A"/>
  <outline>
    <contour>
      <point x="41" y="-188" type="curve" smooth="yes"/>
      <point x="154.94082840236686" y="-188.0"/>
      <point x="207" y="-124.0"/>
      <point x="207" y="-18" type="curve" smooth="yes"/>
      <point x="207" y="532" type="line"/>
      <point x="69" y="532" type="line"/>
      <point x="69" y="-18" type="line" smooth="yes"/>
      <point x="69" y="-54.0"/>
      <point x="57.81818181818181" y="-68.0"/>
      <point x="28" y="-68" type="curve"/>
      <point x="15" y="-68"/>
      <point x="4" y="-66"/>
      <point x="-9" y="-62" type="curve"/>
      <point x="-28" y="-175" type="line"/>
      <point x="-6" y="-183"/>
      <point x="18" y="-188"/>
    </contour>
    <contour>
      <point x="138" y="596" type="curve" smooth="yes"/>
      <point x="185" y="596"/>
      <point x="220" y="632"/>
      <point x="220" y="680" type="curve" smooth="yes"/>
      <point x="220" y="728"/>
      <point x="185" y="764"/>
      <point x="138" y="764" type="curve" smooth="yes"/>
      <point x="91" y="764"/>
      <point x="56" y="728"/>
      <point x="56" y="680" type="curve" smooth="yes"/>
      <point x="56" y="632"/>
      <point x="91" y="596"/>
    </contour>
  </outline>
</glyph>
<glyph name="l" format="2">
  <advance width="282"/>
  <unicode hex="006C"/>
  <anchor x="142" y="0" name="bottom"/>
  <anchor x="142" y="388" name="center"/>
  <anchor x="142" y="776" name="top"/>
  <anchor x="263" y="776" name="topright"/>
  <outline>
    <contour>
      <point x="256" y="-14" type="curve"/>
      <point x="272" y="98" type="line"/>
      <point x="223.0" y="101.0"/>
      <point x="207" y="117.0"/>
      <point x="207" y="160" type="curve" smooth="yes"/>
      <point x="207" y="776" type="line"/>
      <point x="69" y="754" type="line"/>
      <point x="69" y="158" type="line" smooth="yes"/>
      <point x="69" y="44"/>
      <point x="130" y="-10.0"/>
    </contour>
  </outline>
</glyph>
<glyph name="p" format="2">
  <advance width="497"/>
  <unicode hex="0070"/>
  <anchor x="256" y="0" name="bottom"/>
  <anchor x="256" y="527" name="top"/>
  <outline>
    <contour>
      <point x="69" y="-185" type="line"/>
      <point x="207" y="-185" type="line"/>
      <point x="207" y="2" type="line"/>
      <point x="224" y="-6"/>
      <point x="247" y="-10"/>
      <point x="268" y="-10" type="curve"/>
      <point x="393.0" y="-10.0"/>
      <point x="454.0" y="84.0"/>
      <point x="454" y="275" type="curve" smooth="yes"/>
      <point x="454.0" y="448.0"/>
      <point x="379.0" y="542.0"/>
      <point x="239" y="542" type="curve"/>
      <point x="179" y="542"/>
      <point x="126" y="535"/>
      <point x="69" y="521" type="curve"/>
    </contour>
    <contour>
      <point x="242" y="107" type="curve"/>
      <point x="229" y="107"/>
      <point x="216" y="109"/>
      <point x="207" y="114" type="curve"/>
      <point x="207" y="422" type="line"/>
      <point x="216" y="424"/>
      <point x="225.0" y="425.0"/>
      <point x="236" y="425" type="curve"/>
      <point x="288" y="425"/>
      <point x="310" y="399"/>
      <point x="310" y="275" type="curve" smooth="yes"/>
      <point x="310" y="140"/>
      <point x="289" y="107"/>
    </contour>
  </outline>
</glyph>
<glyph name="v" format="2">
  <advance width="432"/>
  <unicode hex="0076"/>
  <anchor x="218" y="0" name="bottom"/>
  <anchor x="218" y="527" name="top"/>
  <outline>
    <contour>
      <point x="146" y="0" type="curve"/>
      <point x="286" y="0" type="line"/>
      <point x="329.0" y="140.0"/>
      <point x="381.0" y="324.0"/>
      <point x="422" y="532" type="curve"/>
      <point x="281" y="532" type="line"/>
      <point x="269" y="430"/>
      <point x="242" y="278"/>
      <point x="218" y="172" type="curve"/>
      <point x="195" y="278"/>
      <point x="168" y="431"/>
      <point x="155" y="532" type="curve"/>
      <point x="10" y="532" type="line"/>
      <point x="51.0" y="324.0"/>
      <point x="103.0" y="139.99999999999997"/>
    </contour>
  </outline>
</glyph>
<glyph name="degree" format="2">
  <advance width="314.8"/>
  <unicode hex="00B0"/>
  <outline>
    <contour>
      <point x="157" y="496" type="curve" smooth="yes"/>
      <point x="218" y="496"/>
      <point x="296" y="543"/>
      <point x="296" y="630" type="curve" smooth="yes"/>
      <point x="296" y="723"/>
      <point x="220" y="764"/>
      <point x="157" y="764" type="curve" smooth="yes"/>
      <point x="97" y="764"/>
      <point x="19" y="718"/>
      <point x="19" y="630" type="curve" smooth="yes"/>
      <point x="19" y="538"/>
      <point x="95" y="496"/>
    </contour>
    <contour>
      <point x="157" y="583" type="curve" smooth="yes"/>
      <point x="135" y="583"/>
      <point x="111" y="597"/>
      <point x="111" y="630" type="curve" smooth="yes"/>
      <point x="111" y="663"/>
      <point x="135" y="678"/>
      <point x="157" y="678" type="curve" smooth="yes"/>
      <point x="179" y="678"/>
      <point x="204" y="663"/>
      <point x="204" y="630" type="curve" smooth="yes"/>
      <point x="204" y="597"/>
      <point x="179" y="583"/>
    </contour>
  </outline>
</glyph>
<glyph name="AE" format="2">
  <advance width="774.225"/>
  <unicode hex="00C6"/>
  <anchor x="388" y="0" name="bottom"/>
  <anchor x="388" y="693" name="top"/>
  <outline>
    <contour>
      <point x="-3" y="0" type="curve"/>
      <point x="134" y="0" type="line"/>
      <point x="140" y="37"/>
      <point x="158" y="94"/>
      <point x="180" y="154" type="curve"/>
      <point x="370" y="154" type="line"/>
      <point x="370" y="0" type="line"/>
      <point x="738" y="0" type="line"/>
      <point x="738" y="119" type="line"/>
      <point x="512" y="119" type="line"/>
      <point x="512" y="306" type="line"/>
      <point x="702" y="306" type="line"/>
      <point x="702" y="421" type="line"/>
      <point x="512" y="421" type="line"/>
      <point x="512" y="574" type="line"/>
      <point x="723" y="574" type="line"/>
      <point x="723" y="693" type="line"/>
      <point x="292" y="693" type="line"/>
      <point x="244" y="563"/>
      <point x="84" y="268"/>
    </contour>
    <contour>
      <point x="235" y="269" type="line"/>
      <point x="272" y="367"/>
      <point x="331" y="499"/>
      <point x="370" y="585" type="curve"/>
      <point x="370" y="269" type="line"/>
    </contour>
  </outline>
</glyph>
<glyph name="Thorn" format="2">
  <advance width="521.175"/>
  <unicode hex="00DE"/>
  <anchor x="261" y="0" name="bottom"/>
  <anchor x="261" y="693" name="top"/>
  <outline>
    <contour>
      <point x="84" y="0" type="line"/>
      <point x="226" y="0" type="line"/>
      <point x="226" y="136" type="line"/>
      <point x="243" y="136" type="line" smooth="yes"/>
      <point x="354" y="136"/>
      <point x="492" y="187"/>
      <point x="492" y="370" type="curve" smooth="yes"/>
      <point x="492" y="523"/>
      <point x="396" y="601"/>
      <point x="244" y="601" type="curve" smooth="yes"/>
      <point x="252" y="601"/>
      <point x="222" y="600"/>
      <point x="226" y="602" type="curve"/>
      <point x="226" y="693" type="line"/>
      <point x="84" y="693" type="line"/>
    </contour>
    <contour>
      <point x="226" y="257" type="line"/>
      <point x="226" y="479" type="line"/>
      <point x="234" y="479"/>
      <point x="222" y="480"/>
      <point x="244" y="480" type="curve" smooth="yes"/>
      <point x="245" y="480"/>
      <point x="342" y="486"/>
      <point x="342" y="370" type="curve" smooth="yes"/>
      <point x="342" y="299"/>
      <point x="317" y="257"/>
      <point x="228" y="257" type="curve" smooth="yes"/>
    </contour>
  </outline>
</glyph>
<glyph name="germandbls" format="2">
  <advance width="538.925"/>
  <unicode hex="00DF"/>
  <anchor x="269" y="0" name="bottom"/>
  <anchor x="269" y="776" name="top"/>
  <outline>
    <contour>
      <point x="310" y="-12" type="curve" smooth="yes"/>
      <point x="428" y="-12"/>
      <point x="492" y="55"/>
      <point x="492" y="164" type="curve" smooth="yes"/>
      <point x="492" y="295"/>
      <point x="406" y="331"/>
      <point x="406" y="342" type="curve" smooth="yes"/>
      <point x="415" y="360"/>
      <point x="362" y="374"/>
      <point x="362" y="416" type="curve" smooth="yes"/>
      <point x="362" y="437"/>
      <point x="349" y="429"/>
      <point x="387" y="481" type="curve" smooth="yes"/>
      <point x="358" y="464"/>
      <point x="448" y="524"/>
      <point x="448" y="618" type="curve" smooth="yes"/>
      <point x="448" y="702"/>
      <point x="402" y="776"/>
      <point x="261" y="776" type="curve" smooth="yes"/>
      <point x="140" y="776"/>
      <point x="66" y="708"/>
      <point x="66" y="575" type="curve" smooth="yes"/>
      <point x="66" y="0" type="line"/>
      <point x="204" y="0" type="line"/>
      <point x="204" y="581" type="line" smooth="yes"/>
      <point x="204" y="640"/>
      <point x="216" y="656"/>
      <point x="261" y="656" type="curve" smooth="yes"/>
      <point x="297" y="656"/>
      <point x="310" y="634"/>
      <point x="310" y="608" type="curve" smooth="yes"/>
      <point x="310" y="553"/>
      <point x="278" y="529"/>
      <point x="275" y="515" type="curve" smooth="yes"/>
      <point x="259" y="482"/>
      <point x="229" y="455"/>
      <point x="229" y="398" type="curve" smooth="yes"/>
      <point x="229" y="338"/>
      <point x="243" y="323"/>
      <point x="298" y="266" type="curve" smooth="yes"/>
      <point x="328" y="230"/>
      <point x="353" y="219"/>
      <point x="353" y="163" type="curve" smooth="yes"/>
      <point x="353" y="137"/>
      <point x="341" y="110"/>
      <point x="320" y="110" type="curve" smooth="yes"/>
      <point x="253" y="110"/>
      <point x="244" y="131"/>
      <point x="261" y="121" type="curve"/>
      <point x="238" y="1" type="line"/>
      <point x="226" y="7"/>
      <point x="255" y="-12"/>
    </contour>
  </outline>
</glyph>
<glyph name="ae" format="2">
  <advance width="666.35"/>
  <unicode hex="00E6"/>
  <anchor x="334" y="0" name="bottom"/>
  <anchor x="334" y="527" name="top"/>
  <outline>
    <contour>
      <point x="225" y="-20" type="curve" smooth="yes"/>
      <point x="280" y="-20"/>
      <point x="322" y="1"/>
      <point x="352" y="10" type="curve"/>
      <point x="389" y="-13"/>
      <point x="426" y="-20"/>
      <point x="465" y="-20" type="curve" smooth="yes"/>
      <point x="553" y="-20"/>
      <point x="599" y="8"/>
      <point x="599" y="9" type="curve"/>
      <point x="576" y="121" type="line"/>
      <point x="577" y="125"/>
      <point x="555" y="102"/>
      <point x="477" y="102" type="curve" smooth="yes"/>
      <point x="406" y="102"/>
      <point x="404" y="181"/>
      <point x="399" y="217" type="curve"/>
      <point x="625" y="217" type="line"/>
      <point x="626" y="238"/>
      <point x="626" y="263"/>
      <point x="626" y="253" type="curve" smooth="yes"/>
      <point x="626" y="483"/>
      <point x="550" y="545"/>
      <point x="439" y="545" type="curve" smooth="yes"/>
      <point x="447" y="545"/>
      <point x="400" y="562"/>
      <point x="347" y="530" type="curve"/>
      <point x="303" y="538"/>
      <point x="261" y="545"/>
      <point x="217" y="545" type="curve" smooth="yes"/>
      <point x="146" y="545"/>
      <point x="98" y="530"/>
      <point x="79" y="522" type="curve"/>
      <point x="102" y="409" type="line"/>
      <point x="120" y="412"/>
      <point x="127" y="423"/>
      <point x="209" y="423" type="curve" smooth="yes"/>
      <point x="267" y="423"/>
      <point x="261" y="358"/>
      <point x="261" y="363" type="curve" smooth="yes"/>
      <point x="261" y="326" type="line"/>
      <point x="271" y="321"/>
      <point x="238" y="328"/>
      <point x="218" y="328" type="curve" smooth="yes"/>
      <point x="143" y="328"/>
      <point x="34" y="281"/>
      <point x="34" y="152" type="curve" smooth="yes"/>
      <point x="34" y="18"/>
      <point x="146" y="-20"/>
    </contour>
    <contour>
      <point x="221" y="100" type="curve" smooth="yes"/>
      <point x="215" y="100"/>
      <point x="172" y="114"/>
      <point x="172" y="153" type="curve" smooth="yes"/>
      <point x="172" y="236"/>
      <point x="258" y="213"/>
      <point x="227" y="213" type="curve" smooth="yes"/>
      <point x="262" y="213"/>
      <point x="273" y="205"/>
      <point x="261" y="210" type="curve"/>
      <point x="263" y="165"/>
      <point x="274" y="130"/>
      <point x="276" y="105" type="curve"/>
      <point x="255" y="97"/>
      <point x="228" y="100"/>
    </contour>
    <contour>
      <point x="404" y="329" type="line"/>
      <point x="403" y="397"/>
      <point x="429" y="428"/>
      <point x="441" y="428" type="curve" smooth="yes"/>
      <point x="478" y="428"/>
      <point x="480" y="379"/>
      <point x="484" y="329" type="curve"/>
    </contour>
  </outline>
</glyph>
<glyph name="dcroat" format="2">
  <advance width="490.45"/>
  <unicode hex="0111"/>
  <outline>
    <contour>
      <point x="263" y="-21" type="curve" smooth="yes"/>
      <point x="346" y="-21"/>
      <point x="398" y="0"/>
      <point x="423" y="7" type="curve"/>
      <point x="423" y="587" type="line"/>
      <point x="490" y="587" type="line"/>
      <point x="490" y="690" type="line"/>
      <point x="423" y="690" type="line"/>
      <point x="423" y="776" type="line"/>
      <point x="286" y="754" type="line"/>
      <point x="286" y="690" type="line"/>
      <point x="183" y="690" type="line"/>
      <point x="183" y="587" type="line"/>
      <point x="286" y="587" type="line"/>
      <point x="286" y="543" type="line"/>
      <point x="295" y="528"/>
      <point x="281" y="543"/>
      <point x="232" y="543" type="curve" smooth="yes"/>
      <point x="91" y="543"/>
      <point x="40" y="418"/>
      <point x="40" y="264" type="curve" smooth="yes"/>
      <point x="40" y="73"/>
      <point x="117" y="-21"/>
    </contour>
    <contour>
      <point x="245" y="100" type="curve" smooth="yes"/>
      <point x="230" y="100"/>
      <point x="185" y="136"/>
      <point x="185" y="264" type="curve" smooth="yes"/>
      <point x="185" y="356"/>
      <point x="179" y="422"/>
      <point x="250" y="422" type="curve" smooth="yes"/>
      <point x="276" y="422"/>
      <point x="298" y="406"/>
      <point x="286" y="423" type="curve"/>
      <point x="286" y="102" type="line"/>
      <point x="286" y="105"/>
      <point x="286" y="100"/>
    </contour>
  </outline>
</glyph>
<glyph name="eng" format="2">
  <advance width="505.45"/>
  <unicode hex="014B"/>
  <anchor x="253" y="0" name="bottom"/>
  <anchor x="253" y="527" name="top"/>
  <outline>
    <contour>
      <point x="270" y="-190" type="curve" smooth="yes"/>
      <point x="417" y="-190"/>
      <point x="443" y="-82"/>
      <point x="443" y="19" type="curve" smooth="yes"/>
      <point x="443" y="324" type="line" smooth="yes"/>
      <point x="443" y="454"/>
      <point x="396" y="543"/>
      <point x="254" y="543" type="curve" smooth="yes"/>
      <point x="187" y="543"/>
      <point x="120" y="532"/>
      <point x="71" y="520" type="curve"/>
      <point x="71" y="0" type="line"/>
      <point x="209" y="0" type="line"/>
      <point x="209" y="425" type="line"/>
      <point x="228" y="429"/>
      <point x="231" y="421"/>
      <point x="236" y="421" type="curve" smooth="yes"/>
      <point x="304" y="421"/>
      <point x="306" y="383"/>
      <point x="306" y="302" type="curve" smooth="yes"/>
      <point x="306" y="7" type="line" smooth="yes"/>
      <point x="306" y="-51"/>
      <point x="285" y="-77"/>
      <point x="245" y="-77" type="curve" smooth="yes"/>
      <point x="228" y="-77"/>
      <point x="217" y="-75"/>
      <point x="206" y="-72" type="curve"/>
      <point x="190" y="-180" type="line"/>
      <point x="209" y="-185"/>
      <point x="241" y="-190"/>
    </contour>
  </outline>
</glyph>
<glyph name="oe" format="2">
  <advance width="697.925"/>
  <unicode hex="0153"/>
  <anchor x="349" y="0" name="bottom"/>
  <anchor x="349" y="527" name="top"/>
  <outline>
    <contour>
      <point x="241" y="-21" type="curve" smooth="yes"/>
      <point x="289" y="-21"/>
      <point x="321" y="-7"/>
      <point x="361" y="23" type="curve"/>
      <point x="407" y="-5"/>
      <point x="436" y="-20"/>
      <point x="493" y="-20" type="curve" smooth="yes"/>
      <point x="582" y="-20"/>
      <point x="627" y="8"/>
      <point x="628" y="9" type="curve"/>
      <point x="605" y="121" type="line"/>
      <point x="606" y="125"/>
      <point x="583" y="102"/>
      <point x="506" y="102" type="curve" smooth="yes"/>
      <point x="436" y="102"/>
      <point x="431" y="176"/>
      <point x="428" y="217" type="curve"/>
      <point x="653" y="217" type="line"/>
      <point x="654" y="238"/>
      <point x="654" y="263"/>
      <point x="654" y="253" type="curve" smooth="yes"/>
      <point x="654" y="478"/>
      <point x="578" y="545"/>
      <point x="468" y="545" type="curve" smooth="yes"/>
      <point x="471" y="545"/>
      <point x="415" y="565"/>
      <point x="362" y="491" type="curve"/>
      <point x="326" y="528"/>
      <point x="291" y="545"/>
      <point x="241" y="545" type="curve" smooth="yes"/>
      <point x="114" y="545"/>
      <point x="41" y="436"/>
      <point x="41" y="260" type="curve" smooth="yes"/>
      <point x="41" y="85"/>
      <point x="114" y="-21"/>
    </contour>
    <contour>
      <point x="241" y="101" type="curve" smooth="yes"/>
      <point x="192" y="101"/>
      <point x="186" y="171"/>
      <point x="186" y="260" type="curve" smooth="yes"/>
      <point x="186" y="350"/>
      <point x="192" y="422"/>
      <point x="241" y="422" type="curve" smooth="yes"/>
      <point x="291" y="422"/>
      <point x="296" y="350"/>
      <point x="296" y="260" type="curve" smooth="yes"/>
      <point x="296" y="171"/>
      <point x="291" y="101"/>
    </contour>
    <contour>
      <point x="432" y="329" type="line"/>
      <point x="433" y="391"/>
      <point x="458" y="428"/>
      <point x="470" y="428" type="curve" smooth="yes"/>
      <point x="506" y="428"/>
      <point x="509" y="369"/>
      <point x="512" y="329" type="curve"/>
    </contour>
  </outline>
</glyph>
<glyph name="Tbar" format="2">
  <advance width="451.125"/>
  <unicode hex="0166"/>
  <outline>
    <contour>
      <point x="155" y="0" type="line"/>
      <point x="297" y="0" type="line"/>
      <point x="297" y="303" type="line"/>
      <point x="397" y="303" type="line"/>
      <point x="397" y="402" type="line"/>
      <point x="297" y="402" type="line"/>
      <point x="297" y="574" type="line"/>
      <point x="444" y="574" type="line"/>
      <point x="444" y="693" type="line"/>
      <point x="7" y="693" type="line"/>
      <point x="7" y="574" type="line"/>
      <point x="155" y="574" type="line"/>
      <point x="155" y="402" type="line"/>
      <point x="54" y="402" type="line"/>
      <point x="54" y="303" type="line"/>
      <point x="155" y="303" type="line"/>
    </contour>
  </outline>
</glyph>
<glyph name="tbar" format="2">
  <advance width="381.15"/>
  <unicode hex="0167"/>
  <outline>
    <contour>
      <point x="231" y="-19" type="curve" smooth="yes"/>
      <point x="289" y="-19"/>
      <point x="331" y="2"/>
      <point x="343" y="13" type="curve"/>
      <point x="314" y="122" type="line"/>
      <point x="302" y="117"/>
      <point x="295" y="102"/>
      <point x="248" y="102" type="curve" smooth="yes"/>
      <point x="230" y="102"/>
      <point x="202" y="108"/>
      <point x="202" y="187" type="curve" smooth="yes"/>
      <point x="202" y="217" type="line"/>
      <point x="335" y="217" type="line"/>
      <point x="335" y="321" type="line"/>
      <point x="202" y="321" type="line"/>
      <point x="202" y="416" type="line"/>
      <point x="329" y="416" type="line"/>
      <point x="329" y="532" type="line"/>
      <point x="202" y="532" type="line"/>
      <point x="202" y="681" type="line"/>
      <point x="64" y="659" type="line"/>
      <point x="64" y="195" type="line" smooth="yes"/>
      <point x="64" y="62"/>
      <point x="95" y="-19"/>
    </contour>
  </outline>
</glyph>
<glyph name="Uogonek" format="2">
  <advance width="575.8"/>
  <unicode hex="0172"/>
  <outline>
    <contour>
      <point x="351" y="-187" type="curve" smooth="yes"/>
      <point x="382" y="-187"/>
      <point x="419" y="-178"/>
      <point x="430" y="-173" type="curve"/>
      <point x="422" y="-80" type="line"/>
      <point x="413" y="-86"/>
      <point x="394" y="-88"/>
      <point x="377" y="-88" type="curve" smooth="yes"/>
      <point x="369" y="-88"/>
      <point x="348" y="-85"/>
      <point x="348" y="-64" type="curve" smooth="yes"/>
      <point x="348" y="-51"/>
      <point x="346" y="-56"/>
      <point x="346" y="-46" type="curve" smooth="yes"/>
      <point x="366" y="-23"/>
      <point x="387" y="-13"/>
      <point x="403" y="0" type="curve" smooth="yes"/>
      <point x="469" y="51"/>
      <point x="504" y="111"/>
      <point x="504" y="211" type="curve" smooth="yes"/>
      <point x="504" y="693" type="line"/>
      <point x="363" y="693" type="line"/>
      <point x="363" y="222" type="line" smooth="yes"/>
      <point x="363" y="128"/>
      <point x="317" y="101"/>
      <point x="284" y="101" type="curve" smooth="yes"/>
      <point x="259" y="101"/>
      <point x="213" y="125"/>
      <point x="213" y="222" type="curve" smooth="yes"/>
      <point x="213" y="693" type="line"/>
      <point x="71" y="693" type="line"/>
      <point x="71" y="211" type="line" smooth="yes"/>
      <point x="71" y="101"/>
      <point x="117" y="-20"/>
      <point x="275" y="-23" type="curve" smooth="yes"/>
      <point x="263" y="-23"/>
      <point x="246" y="-23"/>
      <point x="235" y="-27" type="curve"/>
      <point x="233" y="-38"/>
      <point x="216" y="-67"/>
      <point x="216" y="-100" type="curve" smooth="yes"/>
      <point x="216" y="-151"/>
      <point x="253" y="-187"/>
    </contour>
  </outline>
</glyph>
<glyph name="uogonek" format="2">
  <advance width="506.8"/>
  <unicode hex="0173"/>
  <outline>
    <contour>
      <point x="373" y="-187" type="curve" smooth="yes"/>
      <point x="404" y="-187"/>
      <point x="441" y="-178"/>
      <point x="452" y="-173" type="curve"/>
      <point x="444" y="-80" type="line"/>
      <point x="435" y="-86"/>
      <point x="416" y="-88"/>
      <point x="399" y="-88" type="curve" smooth="yes"/>
      <point x="390" y="-88"/>
      <point x="370" y="-85"/>
      <point x="370" y="-64" type="curve" smooth="yes"/>
      <point x="370" y="-34"/>
      <point x="430" y="-5"/>
      <point x="436" y="-3" type="curve"/>
      <point x="436" y="525" type="line"/>
      <point x="299" y="525" type="line"/>
      <point x="299" y="103" type="line"/>
      <point x="314" y="107"/>
      <point x="306" y="104"/>
      <point x="265" y="104" type="curve" smooth="yes"/>
      <point x="230" y="104"/>
      <point x="202" y="135"/>
      <point x="202" y="232" type="curve" smooth="yes"/>
      <point x="202" y="525" type="line"/>
      <point x="64" y="525" type="line"/>
      <point x="64" y="195" type="line" smooth="yes"/>
      <point x="64" y="83"/>
      <point x="129" y="-18"/>
      <point x="252" y="-18" type="curve" smooth="yes"/>
      <point x="279" y="-18"/>
      <point x="293" y="-17"/>
      <point x="296" y="-21" type="curve"/>
      <point x="277" y="-29"/>
      <point x="238" y="-50"/>
      <point x="238" y="-100" type="curve" smooth="yes"/>
      <point x="238" y="-151"/>
      <point x="275" y="-187"/>
    </contour>
  </outline>
</glyph>
<glyph name="uni0182" format="2">
  <advance width="514.4"/>
  <unicode hex="0182"/>
  <outline>
    <contour>
      <point x="238" y="-7" type="curve" smooth="yes"/>
      <point x="380" y="-7"/>
      <point x="485" y="59"/>
      <point x="485" y="224" type="curve" smooth="yes"/>
      <point x="485" y="357"/>
      <point x="400" y="454"/>
      <point x="209" y="454" type="curve" smooth="yes"/>
      <point x="219" y="454" type="line"/>
      <point x="219" y="572" type="line"/>
      <point x="415" y="572" type="line"/>
      <point x="415" y="693" type="line"/>
      <point x="77" y="693" type="line"/>
      <point x="77" y="5" type="line"/>
      <point x="141" y="-6"/>
      <point x="192" y="-7"/>
    </contour>
    <contour>
      <point x="247" y="114" type="curve" smooth="yes"/>
      <point x="221" y="114"/>
      <point x="215" y="115"/>
      <point x="219" y="107" type="curve"/>
      <point x="219" y="335" type="line"/>
      <point x="166" y="335" type="line" smooth="yes"/>
      <point x="234" y="335"/>
      <point x="337" y="340"/>
      <point x="337" y="217" type="curve" smooth="yes"/>
      <point x="337" y="104"/>
      <point x="247" y="114"/>
    </contour>
  </outline>
</glyph>
<glyph name="uni0185" format="2">
  <advance width="516.8"/>
  <unicode hex="0185"/>
  <outline>
    <contour>
      <point x="230" y="-7" type="curve" smooth="yes"/>
      <point x="396" y="-7"/>
      <point x="490" y="74"/>
      <point x="490" y="219" type="curve" smooth="yes"/>
      <point x="490" y="383"/>
      <point x="383" y="451"/>
      <point x="217" y="451" type="curve" smooth="yes"/>
      <point x="223" y="451"/>
      <point x="230" y="451"/>
      <point x="218" y="456" type="curve"/>
      <point x="218" y="705" type="line"/>
      <point x="132" y="680"/>
      <point x="77" y="655"/>
      <point x="6" y="614" type="curve"/>
      <point x="76" y="526" type="line"/>
      <point x="76" y="15" type="line"/>
      <point x="143" y="1"/>
      <point x="204" y="-7"/>
    </contour>
    <contour>
      <point x="241" y="114" type="curve" smooth="yes"/>
      <point x="206" y="114"/>
      <point x="219" y="115"/>
      <point x="218" y="114" type="curve"/>
      <point x="218" y="335" type="line"/>
      <point x="218" y="332"/>
      <point x="197" y="330"/>
      <point x="226" y="330" type="curve" smooth="yes"/>
      <point x="256" y="334"/>
      <point x="340" y="335"/>
      <point x="340" y="219" type="curve" smooth="yes"/>
      <point x="340" y="103"/>
      <point x="246" y="114"/>
    </contour>
  </outline>
</glyph>
<glyph name="uni018C" format="2">
  <advance width="490.45"/>
  <unicode hex="018C"/>
  <anchor x="246" y="0" name="bottom"/>
  <anchor x="246" y="527" name="top"/>
  <outline>
    <contour>
      <point x="233" y="-21" type="curve" smooth="yes"/>
      <point x="357" y="-21"/>
      <point x="386" y="-4"/>
      <point x="423" y="12" type="curve"/>
      <point x="423" y="771" type="line"/>
      <point x="100" y="771" type="line"/>
      <point x="100" y="655" type="line"/>
      <point x="286" y="655" type="line"/>
      <point x="286" y="539" type="line"/>
      <point x="278" y="536"/>
      <point x="285" y="543"/>
      <point x="237" y="543" type="curve" smooth="yes"/>
      <point x="101" y="543"/>
      <point x="41" y="431"/>
      <point x="41" y="257" type="curve" smooth="yes"/>
      <point x="41" y="73"/>
      <point x="130" y="-21"/>
    </contour>
    <contour>
      <point x="240" y="100" type="curve" smooth="yes"/>
      <point x="226" y="100"/>
      <point x="187" y="136"/>
      <point x="187" y="257" type="curve" smooth="yes"/>
      <point x="187" y="371"/>
      <point x="184" y="422"/>
      <point x="259" y="422" type="curve" smooth="yes"/>
      <point x="272" y="422"/>
      <point x="283" y="414"/>
      <point x="286" y="418" type="curve"/>
      <point x="286" y="107" type="line"/>
      <point x="293" y="107"/>
      <point x="293" y="100"/>
    </contour>
  </outline>
</glyph>
<glyph name="florin" format="2">
  <advance width="448.425"/>
  <unicode hex="0192"/>
  <outline>
    <contour>
      <point x="59" y="-188" type="curve" smooth="yes"/>
      <point x="177" y="-188"/>
      <point x="253" y="-106"/>
      <point x="253" y="-17" type="curve" smooth="yes"/>
      <point x="253" y="412" type="line"/>
      <point x="381" y="412" type="line"/>
      <point x="381" y="527" type="line"/>
      <point x="253" y="527" type="line"/>
      <point x="253" y="591" type="line" smooth="yes"/>
      <point x="253" y="612"/>
      <point x="269" y="658"/>
      <point x="318" y="658" type="curve" smooth="yes"/>
      <point x="360" y="658"/>
      <point x="376" y="648"/>
      <point x="377" y="647" type="curve"/>
      <point x="405" y="761" type="line"/>
      <point x="395" y="763"/>
      <point x="367" y="776"/>
      <point x="304" y="776" type="curve" smooth="yes"/>
      <point x="180" y="776"/>
      <point x="115" y="700"/>
      <point x="115" y="590" type="curve" smooth="yes"/>
      <point x="115" y="-20" type="line" smooth="yes"/>
      <point x="115" y="-54"/>
      <point x="83" y="-73"/>
      <point x="47" y="-73" type="curve" smooth="yes"/>
      <point x="43" y="-73"/>
      <point x="28" y="-69"/>
      <point x="28" y="-68" type="curve"/>
      <point x="12" y="-178" type="line"/>
      <point x="20" y="-182"/>
      <point x="52" y="-188"/>
    </contour>
  </outline>
</glyph>
<glyph name="uni0195" format="2">
  <advance width="760.425"/>
  <unicode hex="0195"/>
  <outline>
    <contour>
      <point x="502" y="-18" type="curve" smooth="yes"/>
      <point x="656" y="-18"/>
      <point x="695" y="69"/>
      <point x="695" y="209" type="curve" smooth="yes"/>
      <point x="695" y="531" type="line"/>
      <point x="557" y="531" type="line"/>
      <point x="557" y="219" type="line" smooth="yes"/>
      <point x="557" y="111"/>
      <point x="525" y="105"/>
      <point x="502" y="105" type="curve" smooth="yes"/>
      <point x="481" y="105"/>
      <point x="448" y="111"/>
      <point x="448" y="218" type="curve" smooth="yes"/>
      <point x="448" y="320" type="line" smooth="yes"/>
      <point x="448" y="471"/>
      <point x="383" y="543"/>
      <point x="271" y="543" type="curve" smooth="yes"/>
      <point x="244" y="543"/>
      <point x="223" y="543"/>
      <point x="209" y="540" type="curve"/>
      <point x="209" y="776" type="line"/>
      <point x="71" y="754" type="line"/>
      <point x="71" y="-1" type="line"/>
      <point x="209" y="-1" type="line"/>
      <point x="209" y="427" type="line"/>
      <point x="205" y="418"/>
      <point x="224" y="421"/>
      <point x="243" y="421" type="curve" smooth="yes"/>
      <point x="299" y="421"/>
      <point x="311" y="398"/>
      <point x="311" y="308" type="curve"/>
      <point x="311" y="209" type="line"/>
      <point x="311" y="61"/>
      <point x="350" y="-18"/>
    </contour>
  </outline>
</glyph>
<glyph name="uni01AC" format="2">
  <advance width="497.85"/>
  <unicode hex="01AC"/>
  <anchor x="249" y="0" name="bottom"/>
  <anchor x="249" y="693" name="top"/>
  <outline>
    <contour>
      <point x="201" y="0" type="line"/>
      <point x="343" y="0" type="line"/>
      <point x="343" y="574" type="line"/>
      <point x="491" y="574" type="line"/>
      <point x="491" y="693" type="line"/>
      <point x="112" y="693" type="line"/>
      <point x="105" y="693"/>
      <point x="10" y="676"/>
      <point x="10" y="558" type="curve" smooth="yes"/>
      <point x="10" y="540"/>
      <point x="12" y="520"/>
      <point x="15" y="507" type="curve"/>
      <point x="129" y="521" type="line"/>
      <point x="130" y="512"/>
      <point x="129" y="525"/>
      <point x="129" y="531" type="curve" smooth="yes"/>
      <point x="129" y="549"/>
      <point x="123" y="574"/>
      <point x="66" y="574" type="curve" smooth="yes"/>
      <point x="201" y="574" type="line"/>
    </contour>
  </outline>
</glyph>
<glyph name="uni01B3" format="2">
  <advance width="561.5"/>
  <unicode hex="01B3"/>
  <anchor x="281" y="0" name="bottom"/>
  <anchor x="281" y="693" name="top"/>
  <outline>
    <contour>
      <point x="185" y="0" type="line"/>
      <point x="327" y="0" type="line"/>
      <point x="327" y="265" type="line"/>
      <point x="398" y="413"/>
      <point x="381" y="398"/>
      <point x="434" y="538" type="curve" smooth="yes"/>
      <point x="444" y="573"/>
      <point x="451" y="586"/>
      <point x="483" y="586" type="curve" smooth="yes"/>
      <point x="516" y="586"/>
      <point x="541" y="559"/>
      <point x="535" y="562" type="curve"/>
      <point x="591" y="662" type="line"/>
      <point x="580" y="668"/>
      <point x="543" y="709"/>
      <point x="464" y="709" type="curve" smooth="yes"/>
      <point x="370" y="709"/>
      <point x="339" y="663"/>
      <point x="314" y="592" type="curve" smooth="yes"/>
      <point x="301" y="506"/>
      <point x="276" y="463"/>
      <point x="258" y="401" type="curve"/>
      <point x="226" y="490"/>
      <point x="191" y="601"/>
      <point x="160" y="693" type="curve"/>
      <point x="-3" y="693" type="line"/>
      <point x="29" y="602"/>
      <point x="108" y="425"/>
      <point x="185" y="260" type="curve"/>
    </contour>
  </outline>
</glyph>
<glyph name="uni01BB" format="2">
  <advance width="359.95"/>
  <unicode hex="01BB"/>
  <anchor x="180" y="0" name="bottom"/>
  <anchor x="180" y="776" name="top"/>
  <outline>
    <contour>
      <point x="-2" y="0" type="curve"/>
      <point x="346" y="0" type="line"/>
      <point x="346" y="123" type="line"/>
      <point x="155" y="123" type="line"/>
      <point x="165" y="150"/>
      <point x="136" y="190"/>
      <point x="234" y="301" type="curve"/>
      <point x="341" y="301" type="line"/>
      <point x="341" y="413" type="line"/>
      <point x="324" y="413" type="line"/>
      <point x="312" y="421"/>
      <point x="349" y="476"/>
      <point x="349" y="531" type="curve" smooth="yes"/>
      <point x="349" y="645"/>
      <point x="279" y="712"/>
      <point x="153" y="712" type="curve" smooth="yes"/>
      <point x="43" y="712"/>
      <point x="-9" y="647"/>
      <point x="-12" y="648" type="curve"/>
      <point x="53" y="554" type="line"/>
      <point x="35" y="535"/>
      <point x="63" y="593"/>
      <point x="140" y="593" type="curve" smooth="yes"/>
      <point x="154" y="593"/>
      <point x="194" y="580"/>
      <point x="194" y="529" type="curve" smooth="yes"/>
      <point x="194" y="467"/>
      <point x="157" y="419"/>
      <point x="169" y="413" type="curve"/>
      <point x="6" y="413" type="line"/>
      <point x="6" y="301" type="line"/>
      <point x="73" y="301" type="line"/>
      <point x="135" y="324"/>
      <point x="-2" y="196"/>
      <point x="-2" y="19" type="curve" smooth="yes"/>
      <point x="-2" y="15"/>
      <point x="-1" y="4"/>
    </contour>
  </outline>
</glyph>
<glyph name="uni01EA" format="2">
  <advance width="628.45"/>
  <unicode hex="01EA"/>
  <anchor x="315" y="693" name="top"/>
  <outline>
    <contour>
      <point x="368" y="-187" type="curve" smooth="yes"/>
      <point x="398" y="-187"/>
      <point x="435" y="-178"/>
      <point x="446" y="-173" type="curve"/>
      <point x="438" y="-80" type="line"/>
      <point x="434" y="-85"/>
      <point x="414" y="-88"/>
      <point x="394" y="-88" type="curve" smooth="yes"/>
      <point x="385" y="-88"/>
      <point x="364" y="-86"/>
      <point x="364" y="-64" type="curve" smooth="yes"/>
      <point x="364" y="-47"/>
      <point x="370" y="-51"/>
      <point x="369" y="-43" type="curve" smooth="yes"/>
      <point x="395" y="-16"/>
      <point x="428" y="-1"/>
      <point x="446" y="12" type="curve" smooth="yes"/>
      <point x="511" y="55"/>
      <point x="579" y="144"/>
      <point x="579" y="348" type="curve" smooth="yes"/>
      <point x="579" y="602"/>
      <point x="469" y="717"/>
      <point x="315" y="717" type="curve" smooth="yes"/>
      <point x="161" y="717"/>
      <point x="49" y="602"/>
      <point x="49" y="348" type="curve" smooth="yes"/>
      <point x="49" y="100"/>
      <point x="161" y="-17"/>
      <point x="306" y="-22" type="curve" smooth="yes"/>
      <point x="289" y="-22"/>
      <point x="273" y="-24"/>
      <point x="261" y="-26" type="curve"/>
      <point x="262" y="-35"/>
      <point x="238" y="-65"/>
      <point x="238" y="-101" type="curve" smooth="yes"/>
      <point x="238" y="-151"/>
      <point x="273" y="-187"/>
    </contour>
    <contour>
      <point x="315" y="101" type="curve" smooth="yes"/>
      <point x="216" y="101"/>
      <point x="202" y="203"/>
      <point x="202" y="348" type="curve" smooth="yes"/>
      <point x="202" y="494"/>
      <point x="216" y="593"/>
      <point x="315" y="593" type="curve" smooth="yes"/>
      <point x="415" y="593"/>
      <point x="426" y="494"/>
      <point x="426" y="348" type="curve" smooth="yes"/>
      <point x="426" y="203"/>
      <point x="415" y="101"/>
    </contour>
  </outline>
</glyph>
<glyph name="uni0223" format="2">
  <advance width="491.75"/>
  <unicode hex="0223"/>
  <outline>
    <contour>
      <point x="246" y="-21" type="curve" smooth="yes"/>
      <point x="358" y="-21"/>
      <point x="448" y="84"/>
      <point x="448" y="235" type="curve" smooth="yes"/>
      <point x="448" y="361"/>
      <point x="386" y="412"/>
      <point x="362" y="436" type="curve"/>
      <point x="384" y="447"/>
      <point x="427" y="508"/>
      <point x="427" y="584" type="curve" smooth="yes"/>
      <point x="427" y="642"/>
      <point x="424" y="695"/>
      <point x="415" y="776" type="curve"/>
      <point x="280" y="776" type="line"/>
      <point x="281" y="736"/>
      <point x="289" y="700"/>
      <point x="289" y="637" type="curve" smooth="yes"/>
      <point x="289" y="515"/>
      <point x="263" y="487"/>
      <point x="246" y="487" type="curve" smooth="yes"/>
      <point x="229" y="487"/>
      <point x="203" y="515"/>
      <point x="203" y="637" type="curve" smooth="yes"/>
      <point x="203" y="700"/>
      <point x="211" y="736"/>
      <point x="212" y="776" type="curve"/>
      <point x="76" y="776" type="line"/>
      <point x="68" y="695"/>
      <point x="64" y="642"/>
      <point x="64" y="584" type="curve" smooth="yes"/>
      <point x="64" y="508"/>
      <point x="110" y="447"/>
      <point x="130" y="436" type="curve"/>
      <point x="107" y="412"/>
      <point x="43" y="361"/>
      <point x="43" y="235" type="curve" smooth="yes"/>
      <point x="43" y="85"/>
      <point x="134" y="-21"/>
    </contour>
    <contour>
      <point x="246" y="99" type="curve" smooth="yes"/>
      <point x="210" y="99"/>
      <point x="189" y="143"/>
      <point x="189" y="235" type="curve" smooth="yes"/>
      <point x="189" y="328"/>
      <point x="214" y="371"/>
      <point x="246" y="371" type="curve" smooth="yes"/>
      <point x="279" y="371"/>
      <point x="304" y="328"/>
      <point x="304" y="235" type="curve" smooth="yes"/>
      <point x="304" y="143"/>
      <point x="282" y="99"/>
    </contour>
  </outline>
</glyph>
<glyph name="uni023F" format="2">
  <advance width="369.475"/>
  <unicode hex="023F"/>
  <outline>
    <contour>
      <point x="280" y="-178" type="curve" smooth="yes"/>
      <point x="301" y="-178"/>
      <point x="336" y="-172"/>
      <point x="349" y="-168" type="curve"/>
      <point x="339" y="-59" type="line"/>
      <point x="323" y="-64"/>
      <point x="318" y="-63"/>
      <point x="306" y="-63" type="curve" smooth="yes"/>
      <point x="234" y="-63"/>
      <point x="223" y="-53"/>
      <point x="211" y="-40" type="curve" smooth="yes"/>
      <point x="187" y="-14"/>
      <point x="197" y="-15"/>
      <point x="191" y="-10" type="curve"/>
      <point x="182" y="-10"/>
      <point x="184" y="-10"/>
      <point x="173" y="-10" type="curve" smooth="yes"/>
      <point x="284" y="-8"/>
      <point x="350" y="40"/>
      <point x="350" y="138" type="curve" smooth="yes"/>
      <point x="350" y="276"/>
      <point x="236" y="295"/>
      <point x="251" y="302" type="curve" smooth="yes"/>
      <point x="254" y="312"/>
      <point x="177" y="326"/>
      <point x="177" y="385" type="curve" smooth="yes"/>
      <point x="177" y="425"/>
      <point x="208" y="426"/>
      <point x="218" y="426" type="curve" smooth="yes"/>
      <point x="293" y="426"/>
      <point x="300" y="406"/>
      <point x="295" y="405" type="curve"/>
      <point x="326" y="521" type="line"/>
      <point x="322" y="521"/>
      <point x="293" y="541"/>
      <point x="219" y="541" type="curve" smooth="yes"/>
      <point x="110" y="541"/>
      <point x="43" y="474"/>
      <point x="43" y="381" type="curve" smooth="yes"/>
      <point x="43" y="269"/>
      <point x="151" y="234"/>
      <point x="142" y="223" type="curve" smooth="yes"/>
      <point x="159" y="201"/>
      <point x="211" y="195"/>
      <point x="211" y="139" type="curve" smooth="yes"/>
      <point x="211" y="101"/>
      <point x="178" y="98"/>
      <point x="148" y="98" type="curve" smooth="yes"/>
      <point x="107" y="98"/>
      <point x="67" y="118"/>
      <point x="64" y="128" type="curve"/>
      <point x="24" y="21" type="line"/>
      <point x="13" y="24"/>
      <point x="26" y="11"/>
      <point x="27" y="14" type="curve" smooth="yes"/>
      <point x="47" y="9"/>
      <point x="69" y="-45"/>
      <point x="120" y="-102" type="curve" smooth="yes"/>
      <point x="142" y="-126"/>
      <point x="171" y="-178"/>
    </contour>
  </outline>
</glyph>
<glyph name="uni0243" format="2">
  <advance width="542.1"/>
  <unicode hex="0243"/>
  <outline>
    <contour>
      <point x="239" y="-8" type="curve" smooth="yes"/>
      <point x="389" y="-8"/>
      <point x="505" y="51"/>
      <point x="505" y="191" type="curve" smooth="yes"/>
      <point x="505" y="314"/>
      <point x="448" y="346"/>
      <point x="416" y="375" type="curve"/>
      <point x="455" y="407"/>
      <point x="479" y="451"/>
      <point x="479" y="525" type="curve" smooth="yes"/>
      <point x="479" y="684"/>
      <point x="313" y="703"/>
      <point x="242" y="703" type="curve" smooth="yes"/>
      <point x="193" y="703"/>
      <point x="141" y="696"/>
      <point x="78" y="683" type="curve"/>
      <point x="78" y="248" type="line"/>
      <point x="10" y="248" type="line"/>
      <point x="10" y="151" type="line"/>
      <point x="78" y="151" type="line"/>
      <point x="78" y="9" type="line"/>
      <point x="144" y="-4"/>
      <point x="200" y="-8"/>
    </contour>
    <contour>
      <point x="267" y="106" type="curve" smooth="yes"/>
      <point x="233" y="106"/>
      <point x="227" y="109"/>
      <point x="220" y="106" type="curve"/>
      <point x="220" y="151" type="line"/>
      <point x="300" y="151" type="line"/>
      <point x="300" y="248" type="line"/>
      <point x="220" y="248" type="line"/>
      <point x="220" y="308" type="line"/>
      <point x="262" y="308" type="line" smooth="yes"/>
      <point x="287" y="308"/>
      <point x="355" y="294"/>
      <point x="355" y="196" type="curve" smooth="yes"/>
      <point x="355" y="97"/>
      <point x="243" y="106"/>
    </contour>
    <contour>
      <point x="220" y="420" type="line"/>
      <point x="220" y="589" type="line"/>
      <point x="235" y="591"/>
      <point x="226" y="588"/>
      <point x="261" y="588" type="curve" smooth="yes"/>
      <point x="262" y="588"/>
      <point x="331" y="584"/>
      <point x="331" y="500" type="curve" smooth="yes"/>
      <point x="331" y="417"/>
      <point x="261" y="420"/>
      <point x="242" y="420" type="curve" smooth="yes"/>
    </contour>
  </outline>
</glyph>
<glyph name="uni0248" format="2">
  <advance width="422.775"/>
  <unicode hex="0248"/>
  <anchor x="211" y="0" name="bottom"/>
  <anchor x="211" y="693" name="top"/>
  <outline>
    <contour>
      <point x="158" y="-23" type="curve" smooth="yes"/>
      <point x="331" y="-23"/>
      <point x="355" y="97"/>
      <point x="355" y="186" type="curve" smooth="yes"/>
      <point x="355" y="311" type="line"/>
      <point x="414" y="311" type="line"/>
      <point x="414" y="411" type="line"/>
      <point x="355" y="411" type="line"/>
      <point x="355" y="693" type="line"/>
      <point x="213" y="693" type="line"/>
      <point x="213" y="411" type="line"/>
      <point x="113" y="411" type="line"/>
      <point x="113" y="311" type="line"/>
      <point x="213" y="311" type="line"/>
      <point x="213" y="196" type="line" smooth="yes"/>
      <point x="213" y="108"/>
      <point x="182" y="101"/>
      <point x="141" y="101" type="curve" smooth="yes"/>
      <point x="87" y="101"/>
      <point x="61" y="142"/>
      <point x="55" y="149" type="curve"/>
      <point x="3" y="36" type="line"/>
      <point x="14" y="24"/>
      <point x="56" y="-23"/>
    </contour>
  </outline>
</glyph>
<glyph name="uni024F" format="2">
  <advance width="417.775"/>
  <unicode hex="024F"/>
  <anchor x="208" y="0" name="bottom"/>
  <anchor x="208" y="527" name="top"/>
  <outline>
    <contour>
      <point x="65" y="-188" type="curve" smooth="yes"/>
      <point x="170" y="-188"/>
      <point x="211" y="-134"/>
      <point x="251" y="-34" type="curve" smooth="yes"/>
      <point x="284" y="46"/>
      <point x="310" y="137"/>
      <point x="346" y="258" type="curve"/>
      <point x="417" y="258" type="line"/>
      <point x="417" y="352" type="line"/>
      <point x="372" y="352" type="line"/>
      <point x="387" y="408"/>
      <point x="403" y="468"/>
      <point x="418" y="532" type="curve"/>
      <point x="281" y="532" type="line"/>
      <point x="265" y="463"/>
      <point x="252" y="407"/>
      <point x="241" y="352" type="curve"/>
      <point x="182" y="352" type="line"/>
      <point x="163" y="424"/>
      <point x="147" y="491"/>
      <point x="143" y="532" type="curve"/>
      <point x="-7" y="532" type="line"/>
      <point x="7" y="468"/>
      <point x="26" y="408"/>
      <point x="40" y="352" type="curve"/>
      <point x="-17" y="352" type="line"/>
      <point x="-17" y="258" type="line"/>
      <point x="69" y="258" type="line"/>
      <point x="94" y="172"/>
      <point x="118" y="89"/>
      <point x="141" y="12" type="curve"/>
      <point x="130" y="-43"/>
      <point x="102" y="-73"/>
      <point x="69" y="-73" type="curve" smooth="yes"/>
      <point x="44" y="-73"/>
      <point x="2" y="-58"/>
      <point x="5" y="-57" type="curve"/>
      <point x="-21" y="-169" type="line"/>
      <point x="-22" y="-169"/>
      <point x="25" y="-188"/>
    </contour>
    <contour>
      <point x="211" y="183" type="curve"/>
      <point x="217" y="192"/>
      <point x="214" y="225"/>
      <point x="208" y="258" type="curve"/>
      <point x="217" y="258" type="line"/>
      <point x="222" y="266"/>
      <point x="223" y="247"/>
    </contour>
  </outline>
</glyph>
<glyph name="caron" format="2">
  <advance width="314"/>
  <unicode hex="02C7"/>
  <outline>
    <contour>
      <point x="157" y="573" type="line"/>
      <point x="280" y="735" type="line"/>
      <point x="218" y="791" type="line"/>
      <point x="157" y="732" type="line"/>
      <point x="96" y="791" type="line"/>
      <point x="34" y="735" type="line"/>
    </contour>
  </outline>
</glyph>
<glyph name="ring" format="2">
  <advance width="319.025"/>
  <unicode hex="02DA"/>
  <outline>
    <contour>
      <point x="160" y="589" type="curve" smooth="yes"/>
      <point x="218" y="589"/>
      <point x="257" y="637"/>
      <point x="257" y="687" type="curve" smooth="yes"/>
      <point x="257" y="752"/>
      <point x="208" y="784"/>
      <point x="157" y="784" type="curve" smooth="yes"/>
      <point x="109" y="784"/>
      <point x="60" y="749"/>
      <point x="60" y="687" type="curve" smooth="yes"/>
      <point x="60" y="635"/>
      <point x="101" y="589"/>
    </contour>
    <contour>
      <point x="159" y="648" type="curve" smooth="yes"/>
      <point x="142" y="648"/>
      <point x="120" y="656"/>
      <point x="120" y="687" type="curve" smooth="yes"/>
      <point x="120" y="716"/>
      <point x="138" y="726"/>
      <point x="159" y="726" type="curve" smooth="yes"/>
      <point x="181" y="726"/>
      <point x="199" y="716"/>
      <point x="199" y="687" type="curve" smooth="yes"/>
      <point x="199" y="656"/>
      <point x="181" y="648"/>
    </contour>
  </outline>
</glyph>
<glyph name="tilde" format="2">
  <advance width="322.375"/>
  <unicode hex="02DC"/>
  <outline>
    <contour>
      <point x="91" y="612" type="line"/>
      <point x="92" y="634"/>
      <point x="92" y="655"/>
      <point x="115" y="655" type="curve" smooth="yes"/>
      <point x="151" y="655"/>
      <point x="149" y="612"/>
      <point x="213" y="612" type="curve" smooth="yes"/>
      <point x="279" y="612"/>
      <point x="308" y="699"/>
      <point x="305" y="731" type="curve"/>
      <point x="233" y="758" type="line"/>
      <point x="229" y="730"/>
      <point x="222" y="715"/>
      <point x="202" y="715" type="curve" smooth="yes"/>
      <point x="187" y="715"/>
      <point x="176" y="758"/>
      <point x="111" y="758" type="curve" smooth="yes"/>
      <point x="49" y="758"/>
      <point x="13" y="671"/>
      <point x="19" y="639" type="curve"/>
    </contour>
  </outline>
</glyph>
<glyph name="beta" format="2">
  <advance width="520.125"/>
  <unicode hex="03B2"/>
  <outline>
    <contour>
      <point x="71" y="-185" type="line"/>
      <point x="209" y="-185" type="line"/>
      <point x="209" y="0" type="line"/>
      <point x="187" y="17"/>
      <point x="214" y="-8"/>
      <point x="252" y="-8" type="curve" smooth="yes"/>
      <point x="409" y="-8"/>
      <point x="480" y="86"/>
      <point x="480" y="237" type="curve" smooth="yes"/>
      <point x="480" y="301"/>
      <point x="460" y="396"/>
      <point x="376" y="442" type="curve"/>
      <point x="419" y="467"/>
      <point x="445" y="527"/>
      <point x="445" y="581" type="curve" smooth="yes"/>
      <point x="445" y="732"/>
      <point x="364" y="776"/>
      <point x="255" y="776" type="curve" smooth="yes"/>
      <point x="117" y="776"/>
      <point x="71" y="678"/>
      <point x="71" y="584" type="curve" smooth="yes"/>
    </contour>
    <contour>
      <point x="233" y="113" type="curve" smooth="yes"/>
      <point x="198" y="113"/>
      <point x="185" y="135"/>
      <point x="209" y="117" type="curve"/>
      <point x="209" y="584" type="line" smooth="yes"/>
      <point x="209" y="616"/>
      <point x="212" y="661"/>
      <point x="258" y="661" type="curve" smooth="yes"/>
      <point x="309" y="661"/>
      <point x="310" y="621"/>
      <point x="310" y="576" type="curve" smooth="yes"/>
      <point x="310" y="498"/>
      <point x="283" y="482"/>
      <point x="243" y="482" type="curve"/>
      <point x="246" y="482" type="line"/>
      <point x="246" y="369" type="line"/>
      <point x="241" y="369" type="line"/>
      <point x="326" y="369"/>
      <point x="340" y="295"/>
      <point x="340" y="242" type="curve" smooth="yes"/>
      <point x="340" y="156"/>
      <point x="316" y="113"/>
    </contour>
  </outline>
</glyph>
<glyph name="gamma" format="2">
  <advance width="459.625"/>
  <unicode hex="03B3"/>
  <outline>
    <contour>
      <point x="167" y="-185" type="curve"/>
      <point x="296" y="-185" type="line"/>
      <point x="291" y="-114"/>
      <point x="285" y="-58"/>
      <point x="278" y="-19" type="curve"/>
      <point x="409" y="242"/>
      <point x="452" y="504"/>
      <point x="431" y="532" type="curve"/>
      <point x="298" y="532" type="line"/>
      <point x="317" y="491"/>
      <point x="262" y="259"/>
      <point x="241" y="149" type="curve"/>
      <point x="210" y="292"/>
      <point x="160" y="505"/>
      <point x="163" y="532" type="curve"/>
      <point x="12" y="532" type="line"/>
      <point x="-10" y="570"/>
      <point x="139" y="139"/>
    </contour>
  </outline>
</glyph>
<glyph name="lambda" format="2">
  <advance width="430.825"/>
  <unicode hex="03BB"/>
  <outline>
    <contour>
      <point x="2" y="0" type="curve"/>
      <point x="143" y="0" type="line"/>
      <point x="118" y="10"/>
      <point x="153" y="176"/>
      <point x="210" y="353" type="curve"/>
      <point x="249" y="234"/>
      <point x="294" y="17"/>
      <point x="281" y="0" type="curve"/>
      <point x="422" y="0" type="line"/>
      <point x="392" y="204"/>
      <point x="296" y="544"/>
      <point x="245" y="654" type="curve" smooth="yes"/>
      <point x="230" y="689"/>
      <point x="195" y="774"/>
      <point x="66" y="774" type="curve" smooth="yes"/>
      <point x="29" y="774"/>
      <point x="9" y="766"/>
      <point x="9" y="767" type="curve"/>
      <point x="24" y="652" type="line"/>
      <point x="20" y="651"/>
      <point x="27" y="655"/>
      <point x="38" y="655" type="curve" smooth="yes"/>
      <point x="103" y="655"/>
      <point x="102" y="657"/>
      <point x="158" y="501" type="curve" smooth="yes"/>
      <point x="155" y="514"/>
      <point x="151" y="517"/>
      <point x="150" y="517" type="curve"/>
      <point x="94" y="357"/>
      <point x="8" y="95"/>
    </contour>
  </outline>
</glyph>
<glyph name="afii10051" format="2">
  <advance width="601.775"/>
  <unicode hex="0402"/>
  <outline>
    <contour>
      <point x="376" y="-5" type="curve" smooth="yes"/>
      <point x="527" y="-5"/>
      <point x="577" y="103"/>
      <point x="577" y="206" type="curve" smooth="yes"/>
      <point x="577" y="352"/>
      <point x="499" y="438"/>
      <point x="351" y="438" type="curve" smooth="yes"/>
      <point x="296" y="438"/>
      <point x="283" y="432"/>
      <point x="295" y="441" type="curve"/>
      <point x="295" y="574" type="line"/>
      <point x="462" y="574" type="line"/>
      <point x="462" y="693" type="line"/>
      <point x="7" y="693" type="line"/>
      <point x="7" y="574" type="line"/>
      <point x="153" y="574" type="line"/>
      <point x="153" y="0" type="line"/>
      <point x="295" y="0" type="line"/>
      <point x="295" y="324" type="line"/>
      <point x="284" y="313"/>
      <point x="267" y="316"/>
      <point x="333" y="316" type="curve" smooth="yes"/>
      <point x="370" y="316"/>
      <point x="427" y="311"/>
      <point x="427" y="205" type="curve" smooth="yes"/>
      <point x="427" y="151"/>
      <point x="408" y="112"/>
      <point x="355" y="112" type="curve" smooth="yes"/>
      <point x="342" y="112"/>
      <point x="340" y="112"/>
      <point x="339" y="113" type="curve"/>
      <point x="335" y="0" type="line"/>
      <point x="350" y="-2"/>
      <point x="377" y="-5"/>
    </contour>
  </outline>
</glyph>
<glyph name="afii10040" format="2">
  <advance width="599.8"/>
  <unicode hex="0426"/>
  <outline>
    <contour>
      <point x="475" y="-185" type="line"/>
      <point x="608" y="-185" type="line"/>
      <point x="608" y="119" type="line"/>
      <point x="510" y="119" type="line"/>
      <point x="510" y="693" type="line"/>
      <point x="369" y="693" type="line"/>
      <point x="369" y="119" type="line"/>
      <point x="219" y="119" type="line"/>
      <point x="219" y="693" type="line"/>
      <point x="77" y="693" type="line"/>
      <point x="77" y="0" type="line"/>
      <point x="475" y="0" type="line"/>
    </contour>
  </outline>
</glyph>
<glyph name="afii10049" format="2">
  <advance width="552.525"/>
  <unicode hex="042F"/>
  <anchor x="275" y="693" name="top"/>
  <outline>
    <contour>
      <point x="30" y="0" type="curve"/>
      <point x="170" y="0" type="line"/>
      <point x="209" y="95"/>
      <point x="272" y="227"/>
      <point x="290" y="257" type="curve"/>
      <point x="299" y="256"/>
      <point x="333" y="255"/>
      <point x="337" y="255" type="curve" smooth="yes"/>
      <point x="335" y="255" type="line"/>
      <point x="335" y="0" type="line"/>
      <point x="475" y="0" type="line"/>
      <point x="475" y="680" type="line"/>
      <point x="410" y="697"/>
      <point x="352" y="703"/>
      <point x="323" y="703" type="curve" smooth="yes"/>
      <point x="189" y="703"/>
      <point x="71" y="619"/>
      <point x="71" y="477" type="curve" smooth="yes"/>
      <point x="71" y="315"/>
      <point x="182" y="295"/>
      <point x="159" y="282" type="curve"/>
      <point x="164" y="280"/>
      <point x="60" y="111"/>
    </contour>
    <contour>
      <point x="359" y="369" type="line" smooth="yes"/>
      <point x="299" y="369"/>
      <point x="221" y="362"/>
      <point x="221" y="481" type="curve" smooth="yes"/>
      <point x="221" y="590"/>
      <point x="311" y="582"/>
      <point x="309" y="582" type="curve" smooth="yes"/>
      <point x="338" y="582"/>
      <point x="329" y="581"/>
      <point x="335" y="583" type="curve"/>
      <point x="335" y="369" type="line"/>
    </contour>
  </outline>
</glyph>
<glyph name="afii10106" format="2">
  <advance width="712.15"/>
  <unicode hex="0459"/>
  <outline>
    <contour>
      <point x="466" y="-11" type="curve" smooth="yes"/>
      <point x="565" y="-11"/>
      <point x="682" y="16"/>
      <point x="682" y="199" type="curve" smooth="yes"/>
      <point x="682" y="346"/>
      <point x="551" y="406"/>
      <point x="495" y="406" type="curve" smooth="yes"/>
      <point x="474" y="406"/>
      <point x="443" y="389"/>
      <point x="458" y="373" type="curve"/>
      <point x="458" y="532" type="line"/>
      <point x="129" y="532" type="line"/>
      <point x="128" y="454" type="line" smooth="yes"/>
      <point x="127" y="385"/>
      <point x="161" y="128"/>
      <point x="4" y="109" type="curve"/>
      <point x="19" y="-10" type="line"/>
      <point x="288" y="-6"/>
      <point x="257" y="343"/>
      <point x="262" y="388" type="curve" smooth="yes"/>
      <point x="262" y="416" type="line"/>
      <point x="320" y="416" type="line"/>
      <point x="320" y="7" type="line"/>
      <point x="378" y="0"/>
      <point x="381" y="-11"/>
    </contour>
    <contour>
      <point x="468" y="110" type="curve" smooth="yes"/>
      <point x="468" y="110"/>
      <point x="457" y="108"/>
      <point x="458" y="104" type="curve"/>
      <point x="458" y="254" type="line"/>
      <point x="460" y="277"/>
      <point x="480" y="284"/>
      <point x="490" y="284" type="curve" smooth="yes"/>
      <point x="493" y="284"/>
      <point x="542" y="240"/>
      <point x="542" y="199" type="curve" smooth="yes"/>
      <point x="542" y="123"/>
      <point x="508" y="110"/>
    </contour>
  </outline>
</glyph>
<glyph name="uni048E" format="2">
  <advance width="511.8"/>
  <unicode hex="048E"/>
  <outline>
    <contour>
      <point x="77" y="0" type="line"/>
      <point x="219" y="0" type="line"/>
      <point x="219" y="239" type="line"/>
      <point x="236" y="239" type="line" smooth="yes"/>
      <point x="252" y="239"/>
      <point x="271" y="239"/>
      <point x="291" y="241" type="curve"/>
      <point x="335" y="135" type="line"/>
      <point x="435" y="184" type="line"/>
      <point x="398" y="273" type="line"/>
      <point x="436" y="307"/>
      <point x="485" y="364"/>
      <point x="485" y="472" type="curve" smooth="yes"/>
      <point x="485" y="625"/>
      <point x="389" y="703"/>
      <point x="241" y="703" type="curve" smooth="yes"/>
      <point x="208" y="703"/>
      <point x="142" y="697"/>
      <point x="77" y="680" type="curve"/>
    </contour>
    <contour>
      <point x="219" y="359" type="line"/>
      <point x="219" y="583" type="line"/>
      <point x="228" y="580"/>
      <point x="207" y="582"/>
      <point x="247" y="582" type="curve" smooth="yes"/>
      <point x="238" y="582"/>
      <point x="335" y="590"/>
      <point x="335" y="472" type="curve" smooth="yes"/>
      <point x="335" y="435"/>
      <point x="322" y="416"/>
      <point x="341" y="396" type="curve"/>
      <point x="308" y="482" type="line"/>
      <point x="210" y="432" type="line"/>
      <point x="235" y="360" type="line"/>
      <point x="228" y="360"/>
      <point x="224" y="359"/>
      <point x="222" y="359" type="curve" smooth="yes"/>
    </contour>
  </outline>
</glyph>
<glyph name="afii10050" format="2">
  <advance width="461.925"/>
  <unicode hex="0490"/>
  <outline>
    <contour>
      <point x="77" y="0" type="line"/>
      <point x="219" y="0" type="line"/>
      <point x="219" y="574" type="line"/>
      <point x="451" y="574" type="line"/>
      <point x="451" y="825" type="line"/>
      <point x="320" y="825" type="line"/>
      <point x="320" y="693" type="line"/>
      <point x="77" y="693" type="line"/>
    </contour>
  </outline>
</glyph>
<glyph name="uni049C" format="2">
  <advance width="631.375"/>
  <unicode hex="049C"/>
  <outline>
    <contour>
      <point x="77" y="0" type="line"/>
      <point x="219" y="0" type="line"/>
      <point x="219" y="303" type="line"/>
      <point x="258" y="303" type="line"/>
      <point x="258" y="158" type="line"/>
      <point x="363" y="158" type="line"/>
      <point x="363" y="303" type="line"/>
      <point x="380" y="225"/>
      <point x="451" y="69"/>
      <point x="452" y="0" type="curve"/>
      <point x="610" y="0" type="line"/>
      <point x="607" y="68"/>
      <point x="526" y="259"/>
      <point x="467" y="380" type="curve"/>
      <point x="494" y="478"/>
      <point x="573" y="628"/>
      <point x="592" y="693" type="curve"/>
      <point x="440" y="693" type="line"/>
      <point x="437" y="662"/>
      <point x="402" y="542"/>
      <point x="363" y="430" type="curve"/>
      <point x="363" y="547" type="line"/>
      <point x="258" y="547" type="line"/>
      <point x="258" y="416" type="line"/>
      <point x="219" y="416" type="line"/>
      <point x="219" y="693" type="line"/>
      <point x="77" y="693" type="line"/>
    </contour>
  </outline>
</glyph>
<glyph name="uni049F" format="2">
  <advance width="493.975"/>
  <unicode hex="049F"/>
  <outline>
    <contour>
      <point x="63" y="0" type="line"/>
      <point x="201" y="0" type="line"/>
      <point x="201" y="250" type="line"/>
      <point x="232" y="190"/>
      <point x="317" y="79"/>
      <point x="336" y="0" type="curve"/>
      <point x="489" y="0" type="line"/>
      <point x="476" y="77"/>
      <point x="410" y="195"/>
      <point x="345" y="282" type="curve"/>
      <point x="346" y="323"/>
      <point x="457" y="457"/>
      <point x="482" y="532" type="curve"/>
      <point x="333" y="532" type="line"/>
      <point x="360" y="528"/>
      <point x="180" y="315"/>
      <point x="201" y="291" type="curve"/>
      <point x="201" y="31" type="line"/>
      <point x="249" y="31" type="line"/>
      <point x="249" y="136" type="line"/>
      <point x="201" y="136" type="line"/>
      <point x="201" y="175" type="line"/>
      <point x="63" y="188" type="line"/>
      <point x="63" y="136" type="line"/>
      <point x="3" y="136" type="line"/>
      <point x="3" y="31" type="line"/>
      <point x="63" y="31" type="line"/>
    </contour>
  </outline>
</glyph>
<glyph name="uni04AC" format="2">
  <advance width="446.1"/>
  <unicode hex="04AC"/>
  <outline>
    <contour>
      <point x="270" y="-185" type="line"/>
      <point x="404" y="-185" type="line"/>
      <point x="404" y="118" type="line"/>
      <point x="297" y="118" type="line"/>
      <point x="297" y="574" type="line"/>
      <point x="444" y="574" type="line"/>
      <point x="444" y="693" type="line"/>
      <point x="7" y="693" type="line"/>
      <point x="7" y="574" type="line"/>
      <point x="155" y="574" type="line"/>
      <point x="155" y="0" type="line"/>
      <point x="270" y="0" type="line"/>
    </contour>
  </outline>
</glyph>
<glyph name="uni04AD" format="2">
  <advance width="431.275"/>
  <unicode hex="04AD"/>
  <outline>
    <contour>
      <point x="243" y="-145" type="line"/>
      <point x="372" y="-145" type="line"/>
      <point x="372" y="112" type="line"/>
      <point x="286" y="112" type="line"/>
      <point x="286" y="416" type="line"/>
      <point x="414" y="416" type="line"/>
      <point x="414" y="532" type="line"/>
      <point x="17" y="532" type="line"/>
      <point x="17" y="416" type="line"/>
      <point x="148" y="416" type="line"/>
      <point x="148" y="0" type="line"/>
      <point x="243" y="0" type="line"/>
    </contour>
  </outline>
</glyph>
<glyph name="uni04B0" format="2">
  <advance width="506.275"/>
  <unicode hex="04B0"/>
  <outline>
    <contour>
      <point x="184" y="0" type="line"/>
      <point x="326" y="0" type="line"/>
      <point x="326" y="193" type="line"/>
      <point x="418" y="193" type="line"/>
      <point x="418" y="299" type="line"/>
      <point x="326" y="299" type="line"/>
      <point x="326" y="268" type="line"/>
      <point x="383" y="399"/>
      <point x="463" y="606"/>
      <point x="510" y="693" type="curve"/>
      <point x="356" y="693" type="line"/>
      <point x="306" y="578"/>
      <point x="239" y="404"/>
      <point x="257" y="401" type="curve"/>
      <point x="223" y="488"/>
      <point x="185" y="606"/>
      <point x="159" y="693" type="curve"/>
      <point x="-4" y="693" type="line"/>
      <point x="27" y="611"/>
      <point x="101" y="438"/>
      <point x="180" y="268" type="curve"/>
      <point x="180" y="299" type="line"/>
      <point x="90" y="299" type="line"/>
      <point x="90" y="193" type="line"/>
      <point x="184" y="193" type="line"/>
    </contour>
  </outline>
</glyph>
<glyph name="uni04BD" format="2">
  <advance width="546.45"/>
  <unicode hex="04BD"/>
  <outline>
    <contour>
      <point x="345" y="-20" type="curve" smooth="yes"/>
      <point x="433" y="-20"/>
      <point x="479" y="8"/>
      <point x="479" y="9" type="curve"/>
      <point x="456" y="121" type="line"/>
      <point x="458" y="125"/>
      <point x="435" y="102"/>
      <point x="357" y="102" type="curve" smooth="yes"/>
      <point x="291" y="102"/>
      <point x="287" y="172"/>
      <point x="283" y="217" type="curve"/>
      <point x="505" y="217" type="line"/>
      <point x="506" y="228"/>
      <point x="506" y="241"/>
      <point x="506" y="253" type="curve" smooth="yes"/>
      <point x="506" y="488"/>
      <point x="432" y="545"/>
      <point x="323" y="545" type="curve" smooth="yes"/>
      <point x="287" y="545"/>
      <point x="166" y="542"/>
      <point x="142" y="332" type="curve"/>
      <point x="117" y="349"/>
      <point x="97" y="367"/>
      <point x="97" y="410" type="curve" smooth="yes"/>
      <point x="97" y="408"/>
      <point x="98" y="414"/>
      <point x="97" y="421" type="curve"/>
      <point x="-7" y="435" type="line"/>
      <point x="-9" y="437"/>
      <point x="-13" y="415"/>
      <point x="-13" y="394" type="curve" smooth="yes"/>
      <point x="-13" y="259"/>
      <point x="64" y="234"/>
      <point x="138" y="216" type="curve"/>
      <point x="144" y="117"/>
      <point x="191" y="-20"/>
    </contour>
    <contour>
      <point x="287" y="329" type="line"/>
      <point x="287" y="397"/>
      <point x="313" y="428"/>
      <point x="324" y="428" type="curve" smooth="yes"/>
      <point x="360" y="428"/>
      <point x="361" y="379"/>
      <point x="364" y="329" type="curve"/>
    </contour>
  </outline>
</glyph>
<glyph name="uni04C3" format="2">
  <advance width="563.525"/>
  <unicode hex="04C3"/>
  <outline>
    <contour>
      <point x="295" y="-185" type="curve" smooth="yes"/>
      <point x="457" y="-185"/>
      <point x="525" y="-23"/>
      <point x="525" y="113" type="curve" smooth="yes"/>
      <point x="525" y="269"/>
      <point x="461" y="359"/>
      <point x="381" y="408" type="curve"/>
      <point x="450" y="525"/>
      <point x="510" y="644"/>
      <point x="530" y="693" type="curve"/>
      <point x="372" y="693" type="line"/>
      <point x="380" y="666"/>
      <point x="290" y="498"/>
      <point x="219" y="389" type="curve"/>
      <point x="219" y="693" type="line"/>
      <point x="77" y="693" type="line"/>
      <point x="77" y="0" type="line"/>
      <point x="219" y="0" type="line"/>
      <point x="219" y="306" type="line"/>
      <point x="218" y="306"/>
      <point x="201" y="303"/>
      <point x="180" y="303" type="curve" smooth="yes"/>
      <point x="246" y="303"/>
      <point x="375" y="306"/>
      <point x="375" y="119" type="curve" smooth="yes"/>
      <point x="375" y="-20"/>
      <point x="315" y="-65"/>
      <point x="255" y="-65" type="curve" smooth="yes"/>
      <point x="233" y="-65"/>
      <point x="240" y="-63"/>
      <point x="240" y="-64" type="curve"/>
      <point x="235" y="-181" type="line"/>
      <point x="242" y="-181"/>
      <point x="280" y="-185"/>
    </contour>
  </outline>
</glyph>
<glyph name="daggerdbl" format="2">
  <advance width="397.4"/>
  <unicode hex="2021"/>
  <outline>
    <contour>
      <point x="169" y="-145" type="curve"/>
      <point x="230" y="-145" type="line"/>
      <point x="248" y="-96"/>
      <point x="256" y="-65"/>
      <point x="256" y="112" type="curve"/>
      <point x="365" y="112" type="line"/>
      <point x="365" y="222" type="line"/>
      <point x="256" y="222" type="line"/>
      <point x="256" y="380" type="line"/>
      <point x="365" y="380" type="line"/>
      <point x="365" y="490" type="line"/>
      <point x="256" y="490" type="line"/>
      <point x="256" y="693" type="line"/>
      <point x="143" y="693" type="line"/>
      <point x="143" y="490" type="line"/>
      <point x="32" y="490" type="line"/>
      <point x="32" y="380" type="line"/>
      <point x="143" y="380" type="line"/>
      <point x="143" y="222" type="line"/>
      <point x="32" y="222" type="line"/>
      <point x="32" y="112" type="line"/>
      <point x="143" y="112" type="line"/>
      <point x="143" y="-60"/>
      <point x="149" y="-72"/>
    </contour>
  </outline>
</glyph>
<glyph name="perthousand" format="2">
  <advance width="931.4"/>
  <unicode hex="2030"/>
  <outline>
    <contour>
      <point x="118" y="0" type="line"/>
      <point x="244" y="0" type="line"/>
      <point x="521" y="693" type="line"/>
      <point x="395" y="693" type="line"/>
    </contour>
    <contour>
      <point x="160" y="321" type="curve" smooth="yes"/>
      <point x="234" y="321"/>
      <point x="294" y="376"/>
      <point x="294" y="515" type="curve" smooth="yes"/>
      <point x="294" y="652"/>
      <point x="234" y="707"/>
      <point x="160" y="707" type="curve" smooth="yes"/>
      <point x="86" y="707"/>
      <point x="26" y="652"/>
      <point x="26" y="515" type="curve" smooth="yes"/>
      <point x="26" y="370"/>
      <point x="90" y="321"/>
    </contour>
    <contour>
      <point x="160" y="419" type="curve" smooth="yes"/>
      <point x="139" y="419"/>
      <point x="138" y="447"/>
      <point x="138" y="515" type="curve" smooth="yes"/>
      <point x="138" y="582"/>
      <point x="138" y="609"/>
      <point x="160" y="609" type="curve" smooth="yes"/>
      <point x="182" y="609"/>
      <point x="182" y="582"/>
      <point x="182" y="515" type="curve" smooth="yes"/>
      <point x="182" y="447"/>
      <point x="181" y="419"/>
    </contour>
    <contour>
      <point x="485" y="-15" type="curve" smooth="yes"/>
      <point x="559" y="-15"/>
      <point x="619" y="40"/>
      <point x="619" y="179" type="curve" smooth="yes"/>
      <point x="619" y="316"/>
      <point x="559" y="371"/>
      <point x="485" y="371" type="curve" smooth="yes"/>
      <point x="411" y="371"/>
      <point x="351" y="316"/>
      <point x="351" y="179" type="curve" smooth="yes"/>
      <point x="351" y="35"/>
      <point x="415" y="-15"/>
    </contour>
    <contour>
      <point x="485" y="83" type="curve" smooth="yes"/>
      <point x="464" y="83"/>
      <point x="463" y="112"/>
      <point x="463" y="179" type="curve" smooth="yes"/>
      <point x="463" y="246"/>
      <point x="463" y="273"/>
      <point x="485" y="273" type="curve" smooth="yes"/>
      <point x="507" y="273"/>
      <point x="507" y="246"/>
      <point x="507" y="179" type="curve" smooth="yes"/>
      <point x="507" y="112"/>
      <point x="506" y="83"/>
    </contour>
    <contour>
      <point x="771" y="-15" type="curve" smooth="yes"/>
      <point x="845" y="-15"/>
      <point x="905" y="40"/>
      <point x="905" y="179" type="curve" smooth="yes"/>
      <point x="905" y="316"/>
      <point x="845" y="371"/>
      <point x="771" y="371" type="curve" smooth="yes"/>
      <point x="698" y="371"/>
      <point x="638" y="316"/>
      <point x="638" y="179" type="curve" smooth="yes"/>
      <point x="638" y="35"/>
      <point x="701" y="-15"/>
    </contour>
    <contour>
      <point x="771" y="83" type="curve" smooth="yes"/>
      <point x="751" y="83"/>
      <point x="749" y="112"/>
      <point x="749" y="179" type="curve" smooth="yes"/>
      <point x="749" y="246"/>
      <point x="749" y="273"/>
      <point x="771" y="273" type="curve" smooth="yes"/>
      <point x="794" y="273"/>
      <point x="794" y="246"/>
      <point x="794" y="179" type="curve" smooth="yes"/>
      <point x="794" y="112"/>
      <point x="792" y="83"/>
    </contour>
  </outline>
</glyph>
<glyph name="guilsinglright" format="2">
  <advance width="295.825"/>
  <unicode hex="203A"/>
  <outline>
    <contour>
      <point x="133" y="41" type="line"/>
      <point x="275" y="284" type="line"/>
      <point x="133" y="525" type="line"/>
      <point x="39" y="479" type="line"/>
      <point x="113" y="284" type="line"/>
      <point x="39" y="87" type="line"/>
    </contour>
  </outline>
</glyph>
<glyph name="product" format="2">
  <advance width="585.15"/>
  <unicode hex="220F"/>
  <outline>
    <contour>
      <point x="77" y="-109" type="line"/>
      <point x="219" y="-109" type="line"/>
      <point x="219" y="573" type="line"/>
      <point x="366" y="573" type="line"/>
      <point x="366" y="-109" type="line"/>
      <point x="508" y="-109" type="line"/>
      <point x="508" y="693" type="line"/>
      <point x="77" y="693" type="line"/>
    </contour>
  </outline>
</glyph>
<glyph name="greaterequal" format="2">
  <advance width="430"/>
  <unicode hex="2265"/>
  <outline>
    <contour>
      <point x="85" y="115" type="line"/>
      <point x="390" y="270" type="line"/>
      <point x="390" y="384" type="line"/>
      <point x="85" y="541" type="line"/>
      <point x="41" y="434" type="line"/>
      <point x="260" y="328" type="line"/>
      <point x="41" y="222" type="line"/>
    </contour>
    <contour>
      <point x="36" y="-5" type="line"/>
      <point x="390" y="-5" type="line"/>
      <point x="390" y="106" type="line"/>
      <point x="36" y="106" type="line"/>
    </contour>
  </outline>
</glyph>
<glyph name="revcommaaccent" format="2">
  <advance width="81.175"/>
  <outline>
    <contour>
      <point x="-68" y="602" type="curve"/>
      <point x="62" y="602" type="line"/>
      <point x="62" y="606"/>
      <point x="62" y="611"/>
      <point x="62" y="615" type="curve"/>
      <point x="62" y="705"/>
      <point x="107" y="703"/>
      <point x="112" y="719" type="curve"/>
      <point x="65" y="788" type="line"/>
      <point x="39" y="791"/>
      <point x="-69" y="767"/>
      <point x="-69" y="617" type="curve" smooth="yes"/>
      <point x="-69" y="633"/>
      <point x="-69" y="613"/>
    </contour>
  </outline>
</glyph>
